# AST/ASF file generated using VICON BodyLanguage
# -----------------------------------------------
:version 1.10
:name VICON
:units
  mass 1.0
  length 0.45
  angle deg
:documentation
   .ast/.asf automatically generated from VICON data using
   VICON BodyBuilder and BodyLanguage model FoxedUp or BRILLIANT.MOD
:root
   order TX TY TZ RX RY RZ
   axis XYZ
   position 0 0 0  
   orientation 0 0 0 
:bonedata
  begin
     id 1 
     name lhipjoint
     direction 0.655637 -0.713449 0.247245 
     length 2.52691 
     axis 0 0 0  XYZ
  end
  begin
     id 2 
     name lfemur
     direction 0.34202 -0.939693 0  
     length 7.59371  
     axis 0 0 20  XYZ
    dof rx ry rz
    limits (-160.0 20.0)
           (-70.0 70.0)
           (-60.0 70.0)
  end
  begin
     id 3 
     name ltibia
     direction 0.34202 -0.939693 0   
     length 7.28717   
     axis 0 0 20   XYZ
    dof rx
    limits (-10.0 170.0)
  end
  begin
     id 4 
     name lfoot
     direction 0.0886837 -0.243657 0.965798   
     length 2.2218   
     axis -90 7.62852e-016 20   XYZ
    dof rx rz
    limits (-45.0 90.0)
           (-70.0 20.0)
  end
  begin
     id 5 
     name ltoes
     direction 1.53547e-011 -4.22004e-011 1   
     length 1.11249   
     axis -90 7.62852e-016 20   XYZ
    dof rx
    limits (-90.0 20.0)
  end
  begin
     id 6 
     name rhipjoint
     direction -0.645062 -0.722004 0.250209   
     length 2.49697  
     axis 0 0 0  XYZ 
  end
  begin
     id 7 
     name rfemur
     direction -0.34202 -0.939693 0   
     length 7.58734   
     axis 0 0 -20   XYZ
    dof rx ry rz
    limits (-160.0 20.0)
           (-70.0 70.0)
           (-70.0 60.0)
  end
  begin
     id 8 
     name rtibia
     direction -0.34202 -0.939693 0   
     length 7.21538   
     axis 0 0 -20   XYZ
    dof rx
    limits (-10.0 170.0)
 end
 begin
     id 9 
     name rfoot
     direction -0.102907 -0.282735 0.953662   
     length 2.23735  
     axis -90 -7.62852e-016 -20   XYZ
    dof rx rz
    limits (-45.0 90.0)
           (-20.0 70.0)
  end
  begin
     id 10 
     name rtoes
     direction -1.5354e-011 -4.21751e-011 1   
     length 1.11569   
     axis -90 -7.62852e-016 -20   XYZ
    dof rx
    limits (-90.0 20.0)
  end
  begin
     id 11 
     name lowerback
     direction 0.00952301 0.997604 -0.0685217   
     length 2.05943   
     axis 0 0 0   XYZ
    dof rx ry rz
    limits (-20.0 45.0)
           (-30.0 30.0)
           (-30.0 30.0)
  end
  begin
     id 12 
     name upperback
     direction 0.00494399 0.999577 -0.0286701   
     length 2.06523   
     axis 0 0 0   XYZ
    dof rx ry rz
    limits (-20.0 45.0)
           (-30.0 30.0)
           (-30.0 30.0)
  end
  begin
     id 13 
     name thorax
     direction 0.000729686 0.999992 0.00388603   
     length 2.06807   
     axis 0 0 0   XYZ
    dof rx ry rz
    limits (-20.0 45.0)
           (-30.0 30.0)
           (-30.0 30.0)
  end
  begin
     id 14 
     name lowerneck
     direction 0.00452882 0.995459 0.0950816   
     length 1.57426   
     axis 0 0 0   XYZ
    dof rx ry rz
    limits (-20.0 45.0)
           (-30.0 30.0)
           (-30.0 30.0)
  end
  begin
     id 15 
     name upperneck
     direction 0.021922 0.997711 -0.0639762   
     length 1.56399   
     axis 0 0 0   XYZ
    dof rx ry rz
    limits (-20.0 45.0)
           (-30.0 30.0)
           (-30.0 30.0)
  end
  begin
     id 16
     name head
     direction 0.008024 0.999444 -0.0323691  
     length 1.6265  
     axis 0 0 0   XYZ
    dof rx ry rz
    limits (-20.0 45.0)
           (-30.0 30.0)
           (-30.0 30.0)
  end
  begin
     id 17 
     name lclavicle
     direction 0.967826 0.247107 -0.0474446  
     length 3.6598  
     axis 0 0 0   XYZ
    dof ry rz
    limits (-20.0 10.0)
           (0.0 20.0)
  end
  begin
     id 18 
     name lhumerus
     direction 1 -4.48971e-011 -2.90544e-027   
     length 4.86513   
     axis 180 -30 -90   XYZ
    dof rx ry rz
    limits (-60.0 90.0)
           (-90.0 90.0)
           (-90.0 90.0)
  end
  begin
     id 19
     name lradius
     direction 1 -4.48958e-011 1.79638e-026   
     length 3.35554   
     axis 180 -30 -90   XYZ
    dof rx
    limits (-10.0 170.0)
  end
  begin
     id 20
     name lwrist
     direction 1 -4.48952e-011 3.34345e-026   
     length 1.67777   
     axis -2.22354e-014 90 90   XYZ
    dof ry
    limits (-180.0 0.0)
 end
  begin
     id 21 
     name lhand
     direction 1 -4.49055e-011 6.6869e-026   
     length 0.661175   
     axis -4.26681e-014 90 90   XYZ
    dof rx rz
    limits (-90.0 90.0)
           (-45.0 45.0)
  end
  begin
     id 22 
     name lfingers
     direction 1 -4.48731e-011 1.33738e-025   
     length 0.533057   
     axis -8.53362e-014 90 90   XYZ
    dof rx
    limits (0.0 90.0)
  end
  begin
     id 23
     name lthumb
     direction 0.707107 -6.35005e-011 0.707107   
     length 0.765366   
     axis -90 45 2.85299e-015   XYZ
    dof rx rz
    limits (-45.0 45.0)
           (-45.0 45.0)
  end
  begin
     id 24 
     name rclavicle
     direction -0.973174 0.211421 -0.0907389   
     length 3.59444  
     axis 0 0 0   XYZ 
    dof ry rz
    limits (-10.0 20.0)
           (-20.0 0.0)
  end
  begin
     id 25 
     name rhumerus
     direction -1 -4.48964e-011 1.56311e-027  
     length 5.02649   
     axis 180 30 90   XYZ
    dof rx ry rz
    limits (-90.0 60.0)
           (-90.0 90.0)
           (-90.0 90.0)
  end
  begin
     id 26 
     name rradius
     direction -1 -4.48948e-011 2.01724e-026   
     length 3.36431   
     axis 180 30 90   XYZ
    dof rx
    limits (-10.0 170.0)
  end
  begin
     id 27 
     name rwrist
     direction -1 -4.49008e-011 3.34345e-026   
     length 1.68216   
     axis -2.22354e-014 -90 -90   XYZ
    dof ry
    limits (-180.0 0.0)
  end
  begin
     id 28
     name rhand
     direction -1 -4.49013e-011 6.6869e-026   
     length 0.730406   
     axis -4.26681e-014 -90 -90   XYZ
    dof rx rz
    limits (-90.0 90.0)
           (-45.0 45.0)
  end
  begin
     id 29
     name rfingers
     direction -1 -4.48867e-011 1.33738e-025   
     length 0.588872   
     axis -8.53362e-014 -90 -90   XYZ
    dof rx
    limits (0.0 90.0)
  end
  begin
     id 30
     name rthumb
     direction -0.707107 -6.34907e-011 0.707107   
     length 0.845506   
     axis -90 -45 -2.85299e-015   XYZ
    dof rx rz
    limits (-45.0 45.0)
           (-45.0 45.0)
  end
:hierarchy
  begin
    root lhipjoint rhipjoint lowerback
    lhipjoint lfemur
    lfemur ltibia
    ltibia lfoot
    lfoot ltoes
    rhipjoint rfemur
    rfemur rtibia
    rtibia rfoot
    rfoot rtoes
    lowerback upperback
    upperback thorax
    thorax lowerneck lclavicle rclavicle
    lowerneck upperneck
    upperneck head
    lclavicle lhumerus
    lhumerus lradius
    lradius lwrist
    lwrist lhand lthumb
    lhand lfingers
    rclavicle rhumerus
    rhumerus rradius
    rradius rwrist
    rwrist rhand rthumb
    rhand rfingers
  end

#!OML:ASF H:\Terrain\Patient Classification 1\Takeo\Monday\TakeoMonday.ASF
:FULLY-SPECIFIED
:DEGREES

228
root 9.87672 17.4196 13.7692 -3.51248 -1.11959 -4.51384
lowerback 8.79602 -0.629998 6.65122
upperback 2.01196 -0.175896 1.77447
thorax -2.85362 -0.127763 -1.87448
lowerneck -15.1692 1.48635 -1.88847
upperneck 1.48411 2.49192 -2.95425
head 3.17565 1.08201 -0.45633
rclavicle -1.04362e-015 -2.42517e-014
rhumerus -27.0714 6.58429 -87.4726
rradius 44.5385
rwrist -21.6898
rhand -31.5166 21.2013
rfingers 7.12502
rthumb -4.78195 -8.72473
lclavicle -1.04362e-015 -2.42517e-014
lhumerus -45.484 6.05147 84.2627
lradius 36.1932
lwrist 26.36
lhand -23.459 21.7965
lfingers 7.12502
lthumb 2.99986 51.7552
rfemur 0.603014 2.48378 30.9106
rtibia 30.0311
rfoot -22.2281 -4.41052
rtoes -3.26622
lfemur -27.2805 -0.317288 -16.4772
ltibia 61.9865
lfoot -10.1604 8.93556
ltoes -13.9229
229
root 9.88646 17.4311 13.9952 -3.5572 -1.38883 -4.36373
lowerback 8.89427 -0.549612 6.65498
upperback 2.18493 -0.0732792 1.66843
thorax -2.71933 -0.0697913 -1.99856
lowerneck -15.076 1.47717 -1.81714
upperneck 1.08608 2.45305 -2.99942
head 3.01995 1.06973 -0.488148
rclavicle -1.86361e-015 2.50469e-014
rhumerus -25.9942 7.26416 -87.1899
rradius 46.6737
rwrist -21.8331
rhand -31.3942 21.3527
rfingers 7.12502
rthumb -4.66382 -8.57599
lclavicle -1.86361e-015 2.50469e-014
lhumerus -45.6716 6.68353 83.6983
lradius 34.7845
lwrist 26.9438
lhand -23.6873 21.975
lfingers 7.12502
lthumb 2.77936 51.9366
rfemur 1.9601 2.28709 30.6208
rtibia 29.0393
rfoot -21.9728 -3.73506
rtoes -3.31885
lfemur -27.9447 -0.702494 -16.6501
ltibia 59.5155
lfoot -10.4726 9.37065
ltoes -14.6518
230
root 9.90521 17.4355 14.2129 -3.34616 -1.65862 -3.73352
lowerback 8.94047 -0.437471 6.22997
upperback 2.18147 0.034804 1.48886
thorax -2.74061 -0.0148241 -1.95964
lowerneck -14.8211 1.40498 -1.84283
upperneck 0.582392 2.34429 -3.14126
head 2.79778 1.02143 -0.540447
rclavicle 4.24902e-015 1.55052e-014
rhumerus -24.8149 8.12468 -86.7728
rradius 48.51
rwrist -21.7865
rhand -31.6066 21.5534
rfingers 7.12502
rthumb -4.86888 -8.37068
lclavicle 4.24902e-015 1.55052e-014
lhumerus -45.9259 7.45548 83.1475
lradius 33.2346
lwrist 27.2301
lhand -23.6075 21.8779
lfingers 7.12502
lthumb 2.85641 51.8385
rfemur 3.05646 2.16452 29.7554
rtibia 27.9018
rfoot -21.8411 -3.05969
rtoes -4.59964
lfemur -28.7525 -1.10482 -17.3818
ltibia 56.7827
lfoot -10.4869 9.92256
ltoes -14.8674
231
root 9.91377 17.4398 14.4297 -3.06093 -1.99557 -3.43114
lowerback 9.10369 -0.338428 5.97926
upperback 2.0368 0.160205 1.41746
thorax -2.97303 0.0398267 -1.90766
lowerneck -14.723 1.44986 -1.51823
upperneck 0.421376 2.36334 -3.61802
head 2.73725 1.01715 -0.753349
rclavicle 7.7526e-015 -7.15625e-015
rhumerus -23.8245 9.1423 -86.3418
rradius 50.3381
rwrist -21.9441
rhand -31.7657 22.4485
rfingers 7.12502
rthumb -5.0225 -7.47195
lclavicle 7.7526e-015 -7.15625e-015
lhumerus -46.4932 8.06176 82.6315
lradius 31.8453
lwrist 27.4314
lhand -23.8912 22.3587
lfingers 7.12502
lthumb 2.58248 52.3228
rfemur 4.12669 2.23867 29.3837
rtibia 26.7169
rfoot -21.6367 -3.12339
rtoes -7.38374
lfemur -29.7164 -1.44475 -17.5925
ltibia 53.8998
lfoot -10.7018 9.75662
ltoes -14.0167
232
root 9.91631 17.4553 14.6605 -2.86789 -2.30945 -3.76735
lowerback 9.09487 -0.27532 6.32163
upperback 2.05477 0.277276 1.50823
thorax -2.93856 0.096837 -2.01819
lowerneck -14.8535 1.50925 -1.49005
upperneck 0.377372 2.43622 -3.56217
head 2.74658 1.0552 -0.734285
rclavicle 1.49089e-015 9.93923e-015
rhumerus -22.7769 9.9348 -85.8692
rradius 52.3064
rwrist -22.064
rhand -31.862 23.1779
rfingers 7.12502
rthumb -5.11545 -6.74039
lclavicle 1.49089e-015 9.93923e-015
lhumerus -47.029 8.93682 81.9016
lradius 30.8019
lwrist 27.0938
lhand -24.08 23.1682
lfingers 7.12502
lthumb 2.40013 53.1344
rfemur 5.41104 1.95841 29.5865
rtibia 25.3945
rfoot -21.335 -2.63915
rtoes -9.13847
lfemur -30.5399 -1.78181 -17.0211
ltibia 50.9646
lfoot -11.1571 9.65966
ltoes -14.6405
233
root 9.92283 17.4645 14.8921 -2.71473 -2.73592 -4.23224
lowerback 8.91153 -0.173241 6.83087
upperback 2.29461 0.434277 1.61375
thorax -2.56955 0.187425 -2.20951
lowerneck -15.1875 1.54695 -1.57102
upperneck 0.180843 2.49344 -3.392
head 2.73685 1.09044 -0.658456
rclavicle -5.73991e-015 2.38542e-015
rhumerus -21.2427 10.458 -85.3682
rradius 54.0234
rwrist -22.0693
rhand -31.8996 23.6426
rfingers 7.12502
rthumb -5.15179 -6.27474
lclavicle -5.73991e-015 2.38542e-015
lhumerus -47.2169 9.90584 81.2045
lradius 29.8027
lwrist 26.8018
lhand -24.041 23.7264
lfingers 7.12502
lthumb 2.43775 53.6922
rfemur 6.82643 1.74047 29.8655
rtibia 23.8496
rfoot -20.7629 -1.90812
rtoes -10.0709
lfemur -31.1589 -2.11322 -16.2967
ltibia 48.0092
lfoot -11.5721 10.144
ltoes -15.8259
234
root 9.93456 17.449 15.1275 -2.80512 -3.20471 -4.42351
lowerback 8.98912 -0.0549937 7.10102
upperback 2.50802 0.611549 1.66659
thorax -2.371 0.285018 -2.3243
lowerneck -15.1387 1.57696 -1.54323
upperneck -0.21291 2.51936 -3.54067
head 2.59498 1.10545 -0.710942
rclavicle -1.35671e-014 -2.14687e-014
rhumerus -19.834 10.9469 -84.8006
rradius 55.553
rwrist -22.2172
rhand -31.837 23.8335
rfingers 7.12502
rthumb -5.09133 -6.0853
lclavicle -1.35671e-014 -2.14687e-014
lhumerus -47.4641 10.695 80.6045
lradius 28.6451
lwrist 26.6824
lhand -23.2476 24.6979
lfingers 7.12502
lthumb 3.20399 54.6536
rfemur 8.62787 1.75467 29.8848
rtibia 22.1717
rfoot -20.2059 -1.40326
rtoes -10.6057
lfemur -31.3175 -2.51211 -15.891
ltibia 45.0395
lfoot -11.9088 10.7541
ltoes -17.754
235
root 9.94629 17.4309 15.3639 -2.91682 -3.55801 -4.29412
lowerback 9.26583 0.0112618 6.99086
upperback 2.51628 0.714524 1.69727
thorax -2.50837 0.332088 -2.2444
lowerneck -14.6099 1.59717 -1.67407
upperneck -0.770561 2.53436 -3.59787
head 2.30519 1.12697 -0.709398
rclavicle -6.4605e-016 -1.07344e-014
rhumerus -18.8793 11.5823 -84.1546
rradius 57.1388
rwrist -22.3679
rhand -31.712 23.7879
rfingers 7.12502
rthumb -4.97062 -6.13381
lclavicle -6.4605e-016 -1.07344e-014
lhumerus -48.0387 11.5762 79.9075
lradius 27.4278
lwrist 26.3052
lhand -22.515 25.372
lfingers 7.12502
lthumb 3.91141 55.3159
rfemur 10.4199 1.79431 29.5464
rtibia 20.6077
rfoot -19.6534 -0.903683
rtoes -10.5414
lfemur -31.3672 -2.87197 -15.9025
ltibia 42.0897
lfoot -12.2478 11.4507
ltoes -21.2057
236
root 9.95582 17.4262 15.5996 -2.83821 -3.90413 -4.16278
lowerback 9.31677 0.0728404 6.89607
upperback 2.54533 0.788543 1.65425
thorax -2.50053 0.369851 -2.24473
lowerneck -14.4875 1.63189 -1.77427
upperneck -1.05696 2.57745 -3.477
head 2.18167 1.1596 -0.651323
rclavicle -5.56597e-015 -3.97569e-015
rhumerus -17.6469 12.2633 -83.5522
rradius 58.5695
rwrist -22.526
rhand -31.5746 23.788
rfingers 7.12502
rthumb -4.83796 -6.13677
lclavicle -5.56597e-015 -3.97569e-015
lhumerus -48.6525 12.2496 79.2698
lradius 26.4451
lwrist 26.085
lhand -22.9572 24.8482
lfingers 7.12502
lthumb 3.48439 54.7995
rfemur 11.8276 1.7667 29.1915
rtibia 19.2588
rfoot -18.9777 -0.475904
rtoes -11.7201
lfemur -31.5807 -3.14616 -15.9001
ltibia 39.1693
lfoot -12.3245 12.258
ltoes -23.6731
